<svg id="svg" version="1.1" width="400" height="242.5" viewBox="0 0 400 242.5" xmlns="http://www.w3.org/2000/svg" xmlns:xlink="http://www.w3.org/1999/xlink" ><g id="svgg"><path id="path0" d="M230.556 9.688 C 229.484 10.195,227.737 10.898,226.675 11.249 C 224.151 12.084,223.919 12.190,216.510 15.900 C 208.982 19.670,205.318 20.852,198.098 21.843 C 196.209 22.102,193.626 22.483,192.359 22.689 C 191.092 22.895,188.526 23.223,186.659 23.418 C 177.290 24.394,174.770 25.082,171.255 27.619 C 169.283 29.043,168.370 30.238,167.839 32.090 C 167.193 34.342,172.536 43.958,178.346 50.997 C 182.449 55.969,183.057 56.766,184.232 58.710 C 184.834 59.706,185.436 60.685,185.570 60.885 C 185.703 61.086,185.887 61.413,185.977 61.613 C 186.068 61.813,186.534 62.632,187.013 63.432 C 188.120 65.281,188.521 66.199,188.345 66.483 C 188.165 66.774,185.490 66.761,184.196 66.463 C 183.642 66.335,182.332 66.122,181.285 65.990 C 180.238 65.857,178.235 65.593,176.834 65.401 C 172.999 64.877,170.245 64.568,166.889 64.284 C 159.987 63.701,155.690 63.289,152.941 62.946 C 145.737 62.048,142.339 61.596,140.085 61.236 C 136.461 60.657,134.996 60.456,132.323 60.171 C 130.988 60.028,128.969 59.805,127.835 59.675 C 126.701 59.545,124.572 59.377,123.105 59.302 C 119.779 59.131,115.834 58.773,113.766 58.454 C 112.899 58.320,110.606 58.105,108.672 57.976 C 104.304 57.685,96.633 57.076,94.986 56.889 C 83.032 55.533,41.548 55.762,33.232 57.229 C 32.498 57.359,30.643 57.646,29.109 57.868 C 27.574 58.089,24.900 58.588,23.166 58.976 C 21.431 59.365,19.521 59.785,18.921 59.910 C 18.320 60.035,17.283 60.348,16.616 60.604 C 8.984 63.535,8.079 64.021,5.511 66.572 C 2.883 69.181,0.485 73.537,0.485 75.700 C 0.485 75.957,0.376 76.167,0.243 76.167 C -0.066 76.167,-0.090 87.619,0.218 87.944 C 0.527 88.271,1.665 91.814,2.178 94.048 C 2.416 95.087,2.840 96.556,3.120 97.313 C 3.400 98.069,3.796 99.598,3.999 100.709 C 4.202 101.820,4.584 103.766,4.849 105.033 C 5.391 107.627,5.540 109.930,5.695 118.132 C 5.754 121.267,5.922 124.269,6.069 124.803 C 6.215 125.337,6.552 126.696,6.818 127.823 C 7.083 128.951,7.557 130.370,7.872 130.977 C 8.186 131.584,8.694 132.626,9.000 133.293 C 9.866 135.179,13.949 139.247,16.044 140.312 C 16.965 140.779,18.180 141.430,18.744 141.757 C 21.064 143.102,30.192 146.235,33.960 146.980 C 38.135 147.805,39.112 147.968,39.862 147.968 C 40.318 147.968,41.155 148.132,41.722 148.332 C 42.289 148.532,43.095 148.697,43.511 148.697 C 43.928 148.698,45.525 148.962,47.059 149.285 C 50.351 149.976,54.688 150.348,62.826 150.636 C 66.095 150.751,71.389 151.082,74.591 151.370 C 80.459 151.899,81.437 151.904,90.532 151.458 C 93.068 151.333,93.900 151.383,95.205 151.736 C 96.493 152.085,97.340 152.138,99.699 152.020 C 101.298 151.939,105.472 151.979,108.974 152.107 C 112.477 152.235,119.763 152.445,125.167 152.572 C 131.370 152.719,135.840 152.934,137.295 153.157 C 142.330 153.927,148.745 155.149,150.184 155.612 C 150.802 155.811,151.484 155.973,151.698 155.973 C 152.042 155.973,152.732 156.215,156.216 157.554 C 156.683 157.734,158.702 158.397,160.703 159.029 C 168.427 161.466,175.379 165.083,175.379 166.664 C 175.379 167.017,174.543 167.532,171.801 168.869 C 169.833 169.828,167.841 170.851,167.374 171.140 C 166.907 171.430,165.761 172.084,164.827 172.594 C 163.893 173.103,162.802 173.755,162.401 174.041 C 162.001 174.328,160.964 174.930,160.097 175.379 C 157.018 176.972,150.323 181.828,147.231 184.711 C 146.225 185.649,144.378 187.289,143.126 188.357 C 141.874 189.424,140.023 191.011,139.012 191.883 C 138.001 192.755,136.137 194.303,134.870 195.324 C 132.664 197.100,128.970 200.602,126.600 203.163 C 125.987 203.825,124.350 205.417,122.961 206.701 C 121.573 207.985,119.945 209.503,119.345 210.075 C 117.501 211.831,114.627 213.815,111.439 215.532 C 108.190 217.282,107.483 217.937,107.934 218.780 C 108.423 219.694,109.403 219.714,113.159 218.891 C 122.148 216.922,126.627 214.942,132.602 210.296 C 137.374 206.585,140.264 205.199,144.946 204.374 C 150.877 203.329,152.583 202.724,159.491 199.218 C 164.122 196.867,166.259 196.881,163.893 199.246 C 161.458 201.682,159.343 205.577,157.944 210.204 C 157.543 211.530,156.982 213.214,156.696 213.948 C 156.411 214.682,156.076 215.623,155.951 216.039 C 155.352 218.045,153.155 221.003,149.537 224.678 C 145.430 228.848,144.582 230.076,144.396 232.120 C 144.164 234.684,144.808 234.785,147.625 232.628 C 148.436 232.006,149.801 231.075,150.657 230.558 C 153.015 229.135,154.357 228.163,157.648 225.489 C 166.341 218.426,165.353 219.106,171.279 216.102 C 172.826 215.317,174.215 214.676,174.365 214.676 C 174.596 214.676,178.650 213.140,182.656 211.535 C 183.257 211.294,184.512 210.858,185.446 210.564 C 186.380 210.271,187.480 209.835,187.891 209.596 C 188.302 209.357,189.066 209.026,189.589 208.861 C 190.112 208.696,191.380 208.136,192.406 207.616 C 193.432 207.096,194.469 206.670,194.710 206.669 C 194.951 206.668,195.461 206.505,195.843 206.305 C 196.226 206.106,196.655 205.943,196.797 205.943 C 197.038 205.943,200.201 204.758,201.577 204.153 C 202.487 203.752,208.354 200.030,209.422 199.175 C 209.935 198.765,210.808 198.297,211.363 198.136 C 211.917 197.974,214.827 196.330,217.829 194.483 C 220.831 192.635,223.451 191.026,223.651 190.907 C 234.932 184.211,243.519 178.698,245.270 177.027 C 245.454 176.852,246.494 175.972,247.583 175.071 C 253.142 170.471,254.602 167.179,252.711 163.511 C 251.679 161.511,250.496 160.467,248.865 160.117 C 247.925 159.915,247.027 159.433,245.502 158.309 C 244.357 157.466,242.734 156.350,241.896 155.829 C 237.934 153.367,236.935 152.764,234.494 151.361 C 230.438 149.029,231.011 148.838,239.177 149.804 C 245.345 150.534,247.604 150.747,253.098 151.119 C 255.219 151.262,257.057 151.443,257.183 151.521 C 257.309 151.599,258.739 151.752,260.361 151.861 C 265.770 152.225,272.885 152.986,278.472 153.797 C 279.339 153.923,285.330 154.141,291.786 154.282 C 299.036 154.439,303.706 154.634,304.001 154.792 C 304.558 155.090,310.421 154.926,313.038 154.539 C 313.972 154.401,316.919 154.122,319.588 153.920 C 326.349 153.409,329.481 153.115,331.075 152.843 C 331.828 152.715,333.535 152.483,334.870 152.329 C 336.979 152.084,342.479 151.260,346.270 150.619 C 348.430 150.255,352.039 149.669,354.275 149.319 C 356.643 148.949,358.459 148.431,362.401 146.998 C 363.802 146.489,365.822 145.756,366.889 145.368 C 367.956 144.980,369.321 144.522,369.921 144.350 C 373.331 143.373,377.443 141.546,384.350 137.941 C 393.194 133.326,396.889 130.338,398.985 126.107 L 400.000 124.057 400.000 118.548 C 400.000 115.517,399.916 113.038,399.814 113.038 C 399.712 113.038,399.373 112.356,399.062 111.522 C 398.751 110.688,398.412 109.838,398.308 109.633 C 398.204 109.427,398.038 108.663,397.939 107.935 C 397.840 107.206,397.548 105.923,397.290 105.084 C 396.840 103.619,396.652 102.431,396.116 97.635 C 395.982 96.434,395.767 94.851,395.639 94.118 C 395.410 92.803,394.817 82.777,394.535 75.440 C 394.087 63.784,392.303 58.943,387.033 55.077 C 383.216 52.277,379.976 50.539,377.050 49.722 C 375.998 49.429,374.482 48.857,373.681 48.453 C 372.881 48.048,371.798 47.503,371.276 47.242 C 370.166 46.686,368.546 46.199,367.010 45.959 C 366.410 45.865,364.827 45.429,363.493 44.990 C 362.159 44.550,360.631 44.119,360.097 44.032 C 359.563 43.944,358.184 43.661,357.032 43.403 C 351.629 42.192,346.543 41.565,340.327 41.341 C 337.474 41.238,335.426 41.035,334.079 40.720 C 327.286 39.134,316.111 39.066,301.759 40.525 C 298.487 40.857,270.143 40.637,267.556 40.259 C 266.689 40.132,262.623 39.958,258.520 39.872 C 254.418 39.786,251.061 39.627,251.061 39.519 C 251.061 39.303,252.581 38.084,252.850 38.084 C 252.942 38.084,253.750 37.670,254.647 37.165 C 256.625 36.049,259.503 34.959,263.069 33.976 C 266.291 33.087,266.988 32.422,265.872 31.305 C 264.203 29.637,247.563 30.949,244.633 32.981 C 244.500 33.073,243.845 33.347,243.178 33.590 C 242.511 33.832,241.092 34.437,240.024 34.934 C 238.063 35.847,235.695 36.775,233.475 37.501 C 232.626 37.779,230.731 37.961,227.168 38.109 C 222.470 38.305,216.121 38.686,214.676 38.859 C 213.995 38.941,209.404 38.597,208.878 38.425 C 208.653 38.351,209.145 37.687,210.349 36.440 C 212.507 34.207,213.759 32.472,216.239 28.277 C 219.510 22.746,221.392 20.592,224.840 18.435 C 232.007 13.952,233.813 12.244,233.833 9.933 C 233.846 8.499,233.174 8.448,230.556 9.688 M227.532 13.951 C 227.532 14.250,225.174 16.010,224.774 16.010 C 224.712 16.010,223.806 16.513,222.761 17.128 C 217.091 20.467,214.140 23.692,211.733 29.180 C 211.097 30.631,210.208 32.273,209.759 32.828 C 209.309 33.384,208.694 34.356,208.391 34.989 C 207.352 37.165,205.901 37.707,202.375 37.238 C 198.000 36.656,198.067 36.743,200.364 34.616 C 202.001 33.101,202.472 32.262,201.688 32.262 C 201.344 32.262,200.061 33.353,198.051 35.355 C 197.430 35.973,197.057 36.142,196.325 36.139 C 194.650 36.133,194.655 35.858,196.359 34.353 C 197.679 33.187,198.404 32.019,197.808 32.019 C 197.570 32.019,196.379 32.848,194.587 34.260 C 192.821 35.651,192.505 35.792,191.772 35.511 C 191.119 35.260,191.343 34.841,192.584 33.995 C 194.250 32.859,194.946 32.084,194.605 31.743 C 194.178 31.316,193.206 31.695,191.811 32.832 C 189.734 34.523,189.294 34.762,188.794 34.472 C 188.553 34.332,188.489 34.214,188.651 34.210 C 189.157 34.197,190.661 32.720,190.661 32.237 C 190.661 31.712,190.283 31.662,189.545 32.089 C 188.678 32.589,187.508 33.671,187.508 33.972 C 187.508 34.349,185.759 34.090,183.916 33.438 C 181.571 32.609,180.169 32.236,178.622 32.030 C 177.804 31.920,176.859 31.682,176.523 31.501 C 174.429 30.371,173.439 29.668,173.439 29.310 C 173.438 27.798,180.786 26.082,190.418 25.345 C 196.892 24.850,203.826 23.462,209.458 21.533 C 211.791 20.734,213.039 20.165,218.557 17.383 C 225.648 13.809,227.532 13.089,227.532 13.951 M173.390 31.985 C 174.298 32.633,175.472 33.294,175.999 33.455 C 176.525 33.615,177.829 34.178,178.896 34.706 C 179.964 35.235,181.492 35.781,182.292 35.920 C 183.093 36.060,184.075 36.272,184.475 36.392 C 185.586 36.726,191.275 37.803,193.390 38.080 C 197.704 38.645,199.086 38.851,200.121 39.082 C 200.722 39.216,202.796 39.531,204.730 39.781 C 206.665 40.032,210.103 40.574,212.371 40.986 C 218.305 42.065,231.604 42.634,252.146 42.688 C 256.544 42.700,260.856 42.807,261.727 42.927 C 269.015 43.930,297.374 43.785,305.882 42.702 C 313.081 41.785,322.089 41.970,334.748 43.295 C 336.683 43.497,339.630 43.772,341.298 43.905 C 342.965 44.038,344.930 44.251,345.664 44.378 C 346.398 44.505,348.199 44.782,349.666 44.993 C 353.692 45.573,356.806 46.109,358.156 46.456 C 360.788 47.130,366.737 48.829,368.344 49.365 C 369.278 49.677,370.643 50.110,371.377 50.328 C 372.110 50.546,373.420 50.975,374.287 51.281 C 375.155 51.586,376.491 52.034,377.256 52.276 C 378.918 52.800,379.291 53.172,379.445 54.457 C 379.509 54.991,379.806 56.246,380.105 57.247 C 380.405 58.247,380.994 60.431,381.415 62.098 C 382.286 65.547,382.656 65.998,382.656 63.610 C 382.655 61.772,382.285 59.899,381.406 57.289 C 380.203 53.715,381.574 53.841,385.476 57.661 C 389.401 61.503,390.939 64.039,389.344 64.039 C 388.923 64.039,387.871 61.959,387.871 61.126 C 387.871 61.002,387.693 60.969,387.476 61.052 C 387.134 61.184,387.102 61.494,387.241 63.333 C 387.361 64.929,387.323 65.525,387.091 65.717 C 383.791 68.438,380.548 70.638,378.033 71.859 C 376.562 72.574,376.392 72.359,375.493 68.636 C 375.091 66.975,374.591 64.906,374.381 64.039 C 373.301 59.567,371.924 56.648,372.154 59.317 C 372.211 59.980,372.647 62.213,373.123 64.281 C 374.671 71.013,374.884 72.893,374.133 73.181 C 373.200 73.540,372.606 72.424,371.786 68.769 C 371.577 67.835,371.136 65.925,370.807 64.524 C 370.478 63.123,370.136 61.486,370.046 60.885 C 369.735 58.814,369.114 57.360,368.659 57.641 C 368.389 57.808,368.490 58.497,369.312 62.098 C 371.658 72.379,371.829 73.471,371.176 73.999 C 370.441 74.595,368.438 75.151,366.323 75.348 C 364.285 75.537,363.729 75.230,363.466 73.769 C 363.082 71.632,362.285 71.783,362.487 73.955 C 362.600 75.177,362.558 75.694,362.330 75.883 C 361.120 76.888,354.280 78.588,351.435 78.592 C 350.806 78.592,349.224 78.749,347.918 78.940 C 341.582 79.866,327.192 80.735,323.055 80.443 C 321.815 80.355,316.707 80.182,311.704 80.058 C 302.885 79.840,301.087 79.717,295.694 78.964 C 294.294 78.768,291.455 78.434,289.388 78.222 C 285.304 77.802,283.589 77.607,278.957 77.037 C 277.289 76.831,274.124 76.492,271.922 76.283 C 269.721 76.074,267.265 75.802,266.465 75.679 C 265.664 75.556,264.354 75.396,263.554 75.324 C 262.753 75.252,260.079 74.976,257.611 74.711 C 255.143 74.446,252.086 74.126,250.819 74.000 C 249.551 73.874,247.532 73.541,246.331 73.259 C 244.970 72.941,242.960 72.704,240.995 72.631 C 225.690 72.066,220.141 71.707,215.161 70.962 C 213.893 70.772,211.874 70.498,210.673 70.352 C 208.402 70.078,205.426 69.628,201.698 68.996 C 197.682 68.315,196.855 68.188,195.391 68.033 C 193.208 67.802,191.995 67.275,191.302 66.255 C 190.583 65.197,188.151 61.156,187.924 60.643 C 187.412 59.483,183.368 53.711,182.052 52.260 C 178.494 48.340,173.924 41.855,173.924 40.730 C 173.924 40.590,173.594 39.997,173.192 39.413 C 171.045 36.291,170.093 32.442,171.174 31.247 C 171.681 30.687,171.476 30.619,173.390 31.985 M256.519 33.717 C 256.519 33.957,255.400 34.536,253.236 35.415 C 251.430 36.149,248.570 37.486,246.881 38.387 L 243.809 40.024 240.071 40.024 C 238.014 40.024,235.822 39.954,235.199 39.869 L 234.065 39.714 235.347 39.160 C 236.052 38.856,237.447 38.308,238.448 37.943 C 239.448 37.578,240.813 37.025,241.480 36.713 C 244.069 35.505,249.195 33.963,252.517 33.393 C 253.981 33.142,256.519 33.347,256.519 33.717 M176.564 37.417 C 176.442 38.742,177.887 41.384,181.427 46.303 C 182.903 48.355,184.112 50.129,184.112 50.245 C 184.112 50.360,184.330 50.455,184.597 50.455 C 185.270 50.455,185.227 50.306,184.003 48.387 C 182.978 46.778,181.889 44.932,180.215 41.965 C 177.882 37.828,176.666 36.313,176.564 37.417 M183.357 42.147 C 183.217 43.097,184.052 44.967,185.345 46.600 C 185.734 47.091,186.055 47.586,186.058 47.700 C 186.062 47.814,186.799 48.880,187.696 50.069 C 190.386 53.633,191.481 53.842,189.206 50.357 C 188.539 49.335,187.993 48.403,187.993 48.284 C 187.993 48.166,187.906 48.033,187.800 47.989 C 187.695 47.944,187.347 47.471,187.028 46.938 C 184.825 43.253,183.457 41.468,183.357 42.147 M187.890 43.965 C 188.242 45.072,191.421 49.974,192.553 51.155 C 193.389 52.027,193.329 50.948,192.465 49.577 C 189.024 44.111,187.244 41.929,187.890 43.965 M194.057 46.336 C 194.057 46.863,195.532 49.804,196.252 50.713 C 197.457 52.233,198.169 51.843,197.299 50.140 C 195.921 47.442,194.057 45.256,194.057 46.336 M198.666 46.717 C 198.666 47.497,201.139 52.127,201.976 52.914 C 202.928 53.808,203.275 53.151,202.537 51.852 C 202.214 51.284,201.402 49.782,200.732 48.516 C 199.468 46.124,198.666 45.426,198.666 46.717 M287.495 47.214 C 283.819 47.594,282.350 48.047,282.846 48.646 C 283.118 48.973,283.959 48.999,289.607 48.855 C 295.971 48.692,296.094 48.698,298.727 49.314 C 300.194 49.657,302.486 50.120,303.820 50.342 C 305.155 50.565,307.010 51.008,307.944 51.328 C 309.271 51.781,310.641 51.979,314.212 52.234 C 317.407 52.461,318.841 52.654,318.977 52.875 C 319.085 53.048,319.849 55.276,320.676 57.826 C 321.503 60.376,322.565 63.554,323.035 64.888 C 323.506 66.222,323.945 67.558,324.011 67.856 C 324.077 68.155,324.227 68.340,324.346 68.267 C 324.627 68.093,324.620 66.815,324.332 65.875 C 324.207 65.466,323.757 63.820,323.332 62.220 C 322.350 58.520,321.480 55.649,321.031 54.631 C 320.285 52.941,321.006 51.910,322.934 51.910 C 323.248 51.910,324.753 51.645,326.277 51.322 C 335.214 49.423,341.451 49.109,343.924 50.432 C 344.858 50.932,347.340 51.036,347.514 50.582 C 347.718 50.053,347.448 49.888,345.179 49.150 C 339.271 47.231,337.051 47.226,327.592 49.112 C 319.645 50.697,310.217 50.962,309.467 49.623 C 308.911 48.629,308.561 48.514,306.080 48.514 C 304.365 48.514,302.916 48.343,301.185 47.937 C 299.833 47.620,298.145 47.237,297.434 47.088 C 295.770 46.738,291.585 46.791,287.495 47.214 M255.428 47.544 C 255.428 47.811,255.470 48.029,255.522 48.029 C 255.574 48.029,256.639 48.291,257.887 48.610 C 261.860 49.626,264.401 49.904,264.796 49.363 C 265.436 48.489,264.677 48.110,261.906 47.922 C 260.544 47.829,258.741 47.597,257.899 47.406 C 255.817 46.934,255.428 46.956,255.428 47.544 M204.115 48.093 C 203.807 48.881,207.046 55.828,207.946 56.310 C 208.362 56.533,208.396 56.497,208.245 55.994 C 208.050 55.340,206.445 51.665,206.197 51.304 C 206.105 51.170,205.888 50.610,205.714 50.058 C 205.270 48.648,204.343 47.509,204.115 48.093 M208.611 49.875 C 208.611 51.248,212.614 58.248,213.493 58.411 C 214.284 58.557,214.229 57.671,213.368 56.414 C 212.906 55.738,212.018 54.203,211.395 53.002 C 209.402 49.159,208.611 48.271,208.611 49.875 M212.129 49.970 C 212.046 50.103,212.296 50.840,212.684 51.607 C 213.071 52.374,213.561 53.398,213.772 53.883 C 213.983 54.368,214.472 55.132,214.859 55.581 C 215.245 56.030,216.361 57.579,217.337 59.023 C 219.201 61.779,220.071 62.622,220.553 62.140 C 220.755 61.938,220.720 61.751,220.419 61.418 C 220.195 61.171,220.012 60.899,220.012 60.814 C 220.012 60.729,219.318 59.592,218.470 58.286 C 217.622 56.981,216.449 55.139,215.863 54.193 C 213.259 49.991,212.586 49.230,212.129 49.970 M218.072 52.371 C 218.072 53.353,223.583 61.630,223.897 61.121 C 224.465 60.203,219.824 52.372,218.609 52.197 C 218.313 52.154,218.072 52.233,218.072 52.371 M328.561 54.338 C 328.386 54.621,328.494 55.041,329.338 57.368 C 330.938 61.777,332.626 63.991,331.373 60.036 C 329.847 55.222,329.034 53.574,328.561 54.338 M224.136 54.506 C 224.136 55.130,227.960 60.951,229.458 62.608 C 230.510 63.772,230.714 63.547,230.057 61.946 C 229.033 59.448,224.136 53.295,224.136 54.506 M336.758 55.729 C 337.036 58.495,338.438 63.069,339.008 63.069 C 339.444 63.069,339.447 62.716,339.024 61.353 C 338.840 60.762,338.558 59.679,338.396 58.945 C 337.550 55.101,336.485 53.011,336.758 55.729 M333.133 56.178 C 333.295 57.223,333.674 58.603,334.626 61.613 C 334.943 62.614,335.543 64.579,335.961 65.979 C 336.379 67.380,336.865 68.854,337.042 69.254 C 337.218 69.654,337.437 70.229,337.528 70.531 C 337.620 70.833,337.795 71.018,337.919 70.941 C 338.241 70.742,338.197 69.776,337.818 68.713 C 337.638 68.210,337.356 67.417,337.190 66.950 C 337.024 66.483,336.640 65.227,336.337 64.160 C 336.033 63.093,335.551 61.674,335.267 61.007 C 334.808 59.931,334.573 59.066,334.101 56.716 C 333.853 55.484,332.947 54.980,333.133 56.178 M323.593 56.441 C 323.600 57.554,324.662 60.523,326.614 64.888 C 326.913 65.555,327.350 66.701,327.586 67.435 C 328.098 69.023,328.215 69.180,328.676 68.895 C 329.037 68.672,327.805 64.422,326.566 61.613 C 326.301 61.013,325.710 59.540,325.252 58.340 C 324.459 56.261,323.585 55.261,323.593 56.441 M344.694 56.572 C 344.694 56.867,344.847 57.550,345.035 58.088 C 345.223 58.626,345.620 59.939,345.918 61.007 C 346.217 62.074,346.827 64.059,347.275 65.417 C 347.723 66.775,348.090 68.103,348.090 68.368 C 348.090 69.324,349.031 71.115,349.484 71.022 C 349.751 70.967,349.881 70.757,349.833 70.458 C 349.481 68.253,347.496 61.663,345.909 57.429 C 345.383 56.023,344.694 55.538,344.694 56.572 M348.674 56.611 C 348.405 57.312,352.518 71.559,352.989 71.559 C 353.560 71.559,352.422 66.118,351.112 62.583 C 350.939 62.116,350.504 60.619,350.144 59.255 C 349.487 56.762,348.972 55.835,348.674 56.611 M357.477 56.602 C 357.104 57.575,360.319 68.069,361.304 69.093 C 362.250 70.078,362.058 67.342,361.000 64.767 C 360.863 64.433,360.459 63.138,360.101 61.888 C 359.075 58.300,357.806 55.745,357.477 56.602 M340.012 56.843 C 339.814 57.361,340.144 58.531,341.358 61.613 C 341.962 63.147,342.628 65.167,342.838 66.101 C 343.996 71.270,344.276 72.283,344.626 72.573 C 345.341 73.167,344.701 68.983,343.414 64.645 C 343.216 63.978,342.810 62.614,342.512 61.613 C 341.385 57.823,340.376 55.897,340.012 56.843 M352.374 56.701 C 352.177 57.026,354.038 64.828,354.963 67.556 C 355.568 69.338,355.813 70.214,356.083 71.559 C 356.412 73.201,356.698 73.721,357.068 73.350 C 357.261 73.157,357.194 72.392,356.824 70.563 C 356.544 69.176,356.158 67.223,355.966 66.222 C 354.636 59.269,353.172 55.387,352.374 56.701 M365.564 57.671 C 365.568 58.172,365.740 59.236,365.945 60.036 C 366.150 60.837,366.414 61.948,366.532 62.505 C 366.650 63.062,366.915 63.922,367.121 64.415 C 367.327 64.908,367.495 65.749,367.495 66.284 C 367.495 66.819,367.600 67.652,367.728 68.134 C 367.856 68.617,368.033 69.448,368.121 69.982 C 368.272 70.898,368.295 70.920,368.540 70.387 C 369.008 69.367,367.321 59.998,366.163 57.186 C 365.866 56.465,365.554 56.717,365.564 57.671 M375.405 57.873 C 374.996 58.939,375.873 62.495,377.375 65.858 C 379.536 70.698,379.545 67.415,377.387 61.007 C 376.270 57.687,375.776 56.906,375.405 57.873 M91.086 58.687 C 92.286 58.831,94.415 59.112,95.816 59.311 C 97.216 59.510,100.109 59.777,102.244 59.904 C 106.247 60.143,109.982 60.513,112.310 60.901 C 115.070 61.361,122.210 62.010,130.867 62.587 C 132.868 62.720,134.779 62.882,135.112 62.947 C 135.446 63.011,136.974 63.174,138.508 63.309 C 141.809 63.598,147.787 64.383,150.515 64.884 C 152.912 65.325,155.501 65.729,156.944 65.887 C 157.544 65.952,159.400 66.160,161.067 66.347 C 162.735 66.534,165.246 66.803,166.646 66.944 C 168.047 67.086,170.176 67.311,171.377 67.446 C 172.577 67.580,174.979 67.797,176.713 67.927 C 182.665 68.374,187.216 68.908,188.877 69.353 C 189.791 69.598,192.013 69.981,193.814 70.204 C 195.616 70.427,198.017 70.766,199.151 70.957 C 202.379 71.501,205.915 72.010,212.614 72.897 C 214.215 73.109,216.234 73.393,217.101 73.529 C 217.968 73.664,219.551 73.865,220.619 73.975 C 221.686 74.085,223.378 74.295,224.378 74.442 C 225.379 74.589,229.602 74.873,233.762 75.073 C 237.923 75.272,242.071 75.545,242.980 75.679 C 243.889 75.812,247.007 76.094,249.909 76.304 C 252.811 76.514,255.518 76.782,255.924 76.898 C 256.331 77.015,257.450 77.176,258.411 77.256 C 261.743 77.533,269.703 78.476,272.771 78.957 C 274.744 79.267,278.082 79.608,285.870 80.298 C 290.315 80.692,296.115 81.252,299.576 81.622 C 307.818 82.502,310.385 82.595,326.016 82.583 C 339.724 82.572,341.977 82.518,344.209 82.147 C 345.609 81.914,348.884 81.404,351.486 81.013 C 357.924 80.046,358.579 79.929,360.946 79.316 C 362.080 79.022,363.554 78.688,364.222 78.572 C 364.890 78.457,366.527 78.026,367.861 77.616 C 369.194 77.205,371.104 76.618,372.104 76.310 C 376.092 75.085,381.476 72.618,383.223 71.216 C 383.578 70.931,384.196 70.543,384.597 70.354 C 384.997 70.165,386.252 69.395,387.386 68.642 C 391.701 65.776,391.578 65.371,392.475 85.385 C 392.876 94.319,393.739 102.421,394.918 108.308 C 395.922 113.323,396.149 114.398,396.402 115.343 C 398.045 121.475,395.252 127.867,389.205 131.818 C 388.405 132.341,387.075 133.300,386.250 133.949 C 384.212 135.552,381.644 136.706,375.622 138.727 C 372.820 139.667,368.617 141.096,366.283 141.902 C 361.970 143.392,360.101 143.875,351.850 145.635 C 350.053 146.019,345.359 147.061,343.412 147.508 C 342.774 147.655,341.573 147.868,340.744 147.982 C 339.914 148.096,338.308 148.364,337.174 148.577 C 330.963 149.747,324.976 150.367,318.588 150.502 C 316.304 150.550,313.818 150.718,313.062 150.874 C 310.464 151.414,290.971 151.102,283.930 150.408 C 282.596 150.276,280.194 150.161,278.593 150.152 C 276.992 150.143,274.918 150.029,273.984 149.898 C 273.050 149.767,270.922 149.551,269.254 149.418 C 267.586 149.285,265.512 149.013,264.645 148.813 C 263.096 148.456,261.587 148.194,258.217 147.698 C 257.283 147.560,254.773 147.349,252.638 147.228 C 248.497 146.995,244.441 146.679,240.509 146.283 C 239.175 146.149,236.283 145.863,234.081 145.648 C 231.880 145.432,229.206 145.109,228.138 144.929 C 223.167 144.090,217.269 143.683,205.368 143.359 C 196.395 143.115,192.860 142.883,188.599 142.256 C 181.929 141.274,178.637 140.752,176.344 140.313 C 175.340 140.121,174.186 139.964,173.779 139.964 C 173.372 139.964,172.064 139.807,170.874 139.615 C 169.683 139.423,167.453 139.095,165.919 138.885 C 164.384 138.676,162.365 138.400,161.431 138.273 C 156.099 137.546,153.941 137.235,152.092 136.927 C 146.641 136.016,138.765 135.010,134.142 134.634 C 132.741 134.520,131.322 134.366,130.988 134.292 C 130.655 134.218,128.799 134.042,126.865 133.901 C 124.930 133.760,122.693 133.546,121.892 133.425 C 121.092 133.304,119.290 133.086,117.890 132.941 C 116.489 132.795,114.142 132.519,112.674 132.326 C 111.207 132.134,107.987 131.801,105.518 131.588 C 101.480 131.238,95.183 130.577,90.237 129.982 C 89.236 129.862,87.489 129.652,86.355 129.516 C 85.218 129.379,73.525 129.169,60.279 129.048 C 36.549 128.830,29.818 128.687,29.109 128.384 C 28.721 128.218,25.498 127.902,22.017 127.688 C 18.033 127.444,14.354 130.775,14.853 134.175 C 15.128 136.048,13.088 134.601,11.898 132.080 C 10.743 129.632,10.431 128.868,10.431 128.495 C 10.431 128.298,10.258 127.724,10.047 127.219 C 9.569 126.075,9.037 123.160,8.699 119.830 C 8.556 118.429,8.349 117.065,8.238 116.798 C 8.127 116.531,7.989 114.403,7.931 112.068 C 7.804 106.986,6.448 99.095,5.180 96.058 C 4.985 95.591,4.618 94.279,4.365 93.142 C 4.112 92.005,3.506 89.882,3.018 88.425 C 1.777 84.717,1.674 79.442,2.766 75.561 C 4.536 69.271,5.409 67.973,9.189 66.023 C 10.305 65.447,11.396 64.873,11.613 64.749 C 13.068 63.915,16.556 62.694,18.921 62.193 C 24.763 60.953,29.246 60.226,32.262 60.030 C 33.529 59.947,35.112 59.780,35.779 59.659 C 41.866 58.550,83.816 57.813,91.086 58.687 M316.976 58.362 C 316.604 58.735,317.327 61.934,318.288 64.160 C 318.403 64.427,318.865 65.901,319.314 67.435 C 320.301 70.805,320.803 72.044,321.183 72.044 C 321.612 72.044,321.350 70.101,320.576 67.556 C 320.211 66.355,319.580 64.281,319.174 62.947 C 318.768 61.613,318.341 60.418,318.224 60.291 C 318.107 60.164,318.011 59.876,318.011 59.651 C 318.011 59.125,317.211 58.128,316.976 58.362 M313.564 58.864 C 313.040 59.388,313.466 61.944,314.732 65.864 C 315.463 68.129,316.064 70.105,316.066 70.255 C 316.074 70.739,316.772 71.182,316.919 70.797 C 317.107 70.308,315.405 62.199,314.469 59.127 C 314.339 58.700,313.865 58.563,313.564 58.864 M361.543 59.736 C 361.366 60.192,363.488 68.853,363.872 69.242 C 363.997 69.369,364.099 69.854,364.099 70.321 C 364.099 70.968,364.167 71.103,364.382 70.887 C 364.598 70.672,364.594 70.184,364.364 68.838 C 363.280 62.482,362.035 58.466,361.543 59.736 M332.080 64.596 C 332.080 66.236,333.092 69.133,333.665 69.133 C 334.204 69.133,334.105 68.029,333.400 66.184 C 332.689 64.325,332.080 63.592,332.080 64.596 M252.959 65.181 C 251.301 65.435,251.529 66.356,253.305 66.579 C 254.006 66.667,255.586 66.950,256.818 67.208 C 260.068 67.889,261.542 67.655,260.875 66.564 C 260.521 65.986,255.241 64.843,253.857 65.045 C 253.720 65.065,253.316 65.126,252.959 65.181 M25.059 135.355 C 25.722 137.690,26.342 139.654,26.437 139.721 C 26.532 139.788,26.682 140.006,26.770 140.206 C 27.345 141.516,26.558 136.360,25.833 134.072 C 25.321 132.456,25.069 131.292,25.201 131.160 C 25.510 130.851,26.800 131.175,27.253 131.676 C 27.636 132.099,30.071 140.161,30.086 141.055 C 30.096 141.650,30.735 142.541,30.978 142.299 C 31.143 142.133,30.818 139.990,29.943 135.476 C 29.736 134.409,29.503 133.062,29.425 132.483 L 29.283 131.430 30.712 131.604 C 32.714 131.847,32.854 131.965,33.482 133.951 C 35.256 139.564,36.764 140.266,35.195 134.748 C 34.479 132.230,34.508 131.863,35.413 131.999 C 36.013 132.089,36.249 132.661,37.096 136.082 C 37.765 138.783,38.225 140.081,38.409 139.784 C 38.553 139.550,38.406 138.541,37.700 134.923 C 37.050 131.588,36.970 131.653,40.873 132.366 C 42.571 132.676,44.970 132.780,51.668 132.835 C 76.776 133.040,79.449 133.092,80.156 133.385 C 80.811 133.656,85.924 134.077,95.209 134.625 C 98.749 134.833,103.786 135.220,106.489 135.490 C 113.507 136.191,116.224 136.508,118.860 136.935 C 121.230 137.319,129.227 138.111,136.082 138.640 C 140.002 138.943,147.549 139.871,149.788 140.325 C 150.722 140.515,152.141 140.785,152.941 140.925 C 154.721 141.236,159.013 142.044,160.825 142.408 C 164.622 143.171,168.724 144.308,173.196 145.839 C 175.931 146.775,178.660 147.684,179.260 147.860 C 180.759 148.298,187.704 150.630,188.599 150.995 C 188.999 151.158,189.709 151.434,190.176 151.609 C 190.643 151.783,191.624 152.191,192.355 152.517 C 193.947 153.224,194.906 153.338,194.906 152.820 C 194.906 152.360,192.104 150.972,189.691 150.237 C 187.612 149.603,178.884 146.603,176.731 145.782 C 172.763 144.268,172.617 143.362,176.419 143.848 C 179.143 144.196,180.132 144.481,181.079 145.193 C 181.994 145.879,187.257 147.968,188.072 147.968 C 188.407 147.968,188.716 148.051,188.761 148.152 C 188.899 148.465,191.379 149.151,191.524 148.916 C 191.599 148.795,191.381 148.696,191.039 148.696 C 190.698 148.696,190.418 148.589,190.418 148.458 C 190.418 148.327,190.152 148.153,189.827 148.072 C 188.871 147.832,184.277 145.447,184.177 145.139 C 183.792 143.955,188.996 145.286,193.062 147.411 C 193.649 147.718,194.304 147.981,194.518 147.996 C 195.302 148.051,198.302 149.789,198.385 150.237 C 198.459 150.635,198.326 150.676,197.195 150.600 C 195.636 150.496,195.307 150.959,196.566 151.486 C 197.670 151.947,197.791 152.176,197.361 152.995 C 196.747 154.160,194.426 156.796,193.433 157.453 C 187.915 161.107,187.223 161.283,184.963 159.614 C 183.662 158.653,178.342 155.973,177.734 155.973 C 177.559 155.973,177.313 155.869,177.186 155.742 C 176.645 155.201,167.100 151.607,166.205 151.607 C 165.800 151.607,165.945 152.116,166.418 152.356 C 167.005 152.653,170.301 153.956,172.226 154.651 C 174.399 155.436,174.623 155.529,178.632 157.301 C 184.401 159.850,186.198 161.471,184.543 162.630 C 183.665 163.245,182.892 163.076,180.739 161.795 C 179.618 161.128,178.657 160.582,178.605 160.582 C 178.552 160.582,175.867 159.281,172.638 157.691 C 166.146 154.493,164.215 153.695,164.224 154.215 C 164.231 154.676,171.248 158.423,175.059 160.001 C 176.213 160.478,177.549 161.112,178.027 161.408 C 178.505 161.704,179.419 162.187,180.058 162.483 C 181.919 163.342,181.797 164.060,179.583 165.297 C 177.848 166.267,177.714 166.265,176.527 165.260 C 175.930 164.755,175.235 164.173,174.981 163.967 C 174.187 163.323,172.267 162.038,172.098 162.038 C 172.009 162.038,171.615 161.808,171.221 161.528 C 170.432 160.967,160.457 155.973,160.124 155.973 C 160.009 155.973,159.435 155.705,158.848 155.376 C 154.066 152.704,144.827 150.649,134.748 150.017 C 133.548 149.941,131.583 149.777,130.382 149.652 C 122.951 148.875,116.528 148.696,95.867 148.689 C 79.492 148.684,73.974 148.604,70.952 148.330 C 68.817 148.137,66.090 147.977,64.891 147.974 C 61.401 147.965,51.266 147.023,47.544 146.360 C 46.410 146.158,44.609 145.838,43.542 145.649 C 42.474 145.460,40.837 145.146,39.903 144.951 C 38.969 144.757,37.386 144.472,36.386 144.318 C 32.675 143.745,28.582 142.810,26.525 142.065 C 24.983 141.506,22.802 140.394,22.802 140.167 C 22.802 140.055,22.609 139.964,22.374 139.964 C 21.382 139.964,19.591 138.411,18.713 136.791 C 17.717 134.951,17.830 133.755,19.112 132.562 C 20.298 131.457,20.571 131.839,21.713 136.204 C 22.491 139.178,22.794 139.964,23.163 139.964 C 23.548 139.964,23.772 139.438,23.644 138.835 C 23.350 137.447,22.482 134.118,22.181 133.224 C 21.707 131.815,21.739 131.496,22.377 131.234 C 23.687 130.697,23.776 130.833,25.059 135.355 M168.463 146.275 C 168.341 146.472,171.101 147.968,171.584 147.968 C 171.742 147.968,172.688 148.302,173.686 148.710 C 174.684 149.118,175.719 149.541,175.985 149.651 C 176.252 149.760,177.835 150.364,179.503 150.993 C 181.170 151.622,182.786 152.236,183.092 152.357 C 183.399 152.478,183.833 152.577,184.058 152.577 C 184.283 152.577,185.179 152.916,186.048 153.330 C 186.918 153.745,187.902 154.205,188.235 154.354 C 188.569 154.503,189.298 154.928,189.856 155.299 C 190.992 156.055,191.389 156.138,191.389 155.622 C 191.389 155.075,190.006 154.206,187.750 153.336 C 186.616 152.898,185.470 152.451,185.203 152.341 C 184.936 152.232,184.118 151.907,183.384 151.619 C 182.650 151.331,181.831 150.998,181.565 150.878 C 180.588 150.440,177.421 149.370,176.721 149.242 C 176.325 149.170,175.867 148.976,175.703 148.812 C 175.107 148.216,168.660 145.957,168.463 146.275 M198.284 146.611 C 199.280 147.028,199.473 147.828,198.629 148.048 C 197.507 148.342,194.057 147.271,194.057 146.630 C 194.057 145.888,196.526 145.877,198.284 146.611 M208.866 147.126 C 209.260 147.329,209.582 147.590,209.582 147.706 C 209.582 148.159,210.311 148.158,211.198 147.703 C 212.500 147.036,213.080 147.167,213.175 148.150 C 213.271 149.147,213.456 149.139,214.506 148.090 C 215.668 146.928,217.344 146.971,217.344 148.162 C 217.344 148.528,216.617 150.195,216.370 150.394 C 216.034 150.666,214.676 152.806,214.676 153.063 C 214.676 154.162,215.807 152.790,217.249 149.944 C 217.796 148.863,219.881 147.241,220.723 147.241 C 222.376 147.241,220.952 150.665,218.301 153.062 C 217.689 153.616,216.854 155.003,217.133 155.003 C 217.461 155.004,220.696 151.741,221.880 150.216 C 222.915 148.883,223.973 148.374,225.294 148.572 C 227.688 148.931,229.725 150.078,240.335 157.037 C 243.307 158.987,245.802 160.582,245.879 160.582 C 245.956 160.582,246.416 160.886,246.903 161.257 C 247.389 161.628,248.079 162.079,248.437 162.259 C 251.540 163.823,251.390 166.599,247.973 170.851 C 246.793 172.320,244.068 174.651,243.532 174.651 C 243.423 174.651,242.695 175.061,241.915 175.561 C 241.135 176.061,240.319 176.580,240.102 176.713 C 239.885 176.847,239.209 177.283,238.599 177.683 C 230.911 182.729,230.041 183.268,223.408 187.102 C 220.406 188.837,217.732 190.376,217.465 190.522 C 217.198 190.668,215.707 191.632,214.151 192.665 C 212.595 193.697,211.273 194.542,211.214 194.542 C 211.000 194.542,206.779 197.024,206.307 197.428 C 206.040 197.657,205.167 198.154,204.366 198.533 C 203.566 198.912,202.550 199.497,202.108 199.833 C 201.177 200.541,199.786 201.323,196.240 203.131 C 194.839 203.846,193.093 204.769,192.359 205.182 C 191.625 205.596,190.801 205.936,190.528 205.939 C 190.254 205.941,189.927 206.042,189.800 206.162 C 189.673 206.283,188.878 206.555,188.034 206.769 C 187.189 206.982,185.759 207.527,184.855 207.980 C 183.952 208.434,181.860 209.265,180.206 209.828 C 175.541 211.416,170.489 213.687,167.167 215.688 C 166.320 216.198,165.573 216.616,165.507 216.616 C 165.103 216.616,157.249 222.683,155.170 224.601 C 153.026 226.579,149.840 228.494,149.529 227.991 C 149.383 227.754,150.116 226.988,154.612 222.680 C 158.519 218.937,160.801 214.768,161.678 209.770 C 162.513 205.009,166.024 200.011,170.649 196.998 C 172.299 195.923,172.577 194.261,171.134 194.095 C 169.647 193.924,162.462 196.051,159.277 197.605 C 154.954 199.715,150.589 201.165,144.451 202.531 C 138.015 203.962,137.671 204.128,129.554 209.708 C 125.131 212.748,117.916 215.887,117.034 215.155 C 116.666 214.850,117.935 213.585,119.337 212.860 C 119.689 212.679,120.184 212.145,120.437 211.673 C 120.701 211.183,121.876 210.060,123.186 209.047 C 124.444 208.074,125.649 207.072,125.866 206.820 C 126.372 206.231,126.978 205.571,129.740 202.605 C 132.045 200.129,133.801 198.666,134.469 198.666 C 134.933 198.666,138.785 195.426,142.138 192.217 C 143.544 190.872,145.731 188.945,146.998 187.936 C 148.266 186.927,150.108 185.390,151.093 184.521 C 152.078 183.652,153.988 182.334,155.338 181.591 C 156.688 180.849,158.393 179.806,159.127 179.273 C 159.861 178.740,160.843 178.132,161.310 177.921 C 161.777 177.710,162.486 177.229,162.887 176.851 C 164.123 175.684,166.493 174.345,174.409 170.344 C 175.676 169.703,177.492 168.666,178.445 168.040 C 179.397 167.413,181.635 166.150,183.417 165.234 C 185.200 164.317,187.773 162.904,189.135 162.094 C 190.497 161.284,192.025 160.480,192.531 160.307 C 194.801 159.533,200.370 152.670,201.742 148.955 C 202.173 147.787,202.562 147.124,202.894 146.989 C 203.804 146.621,208.079 146.719,208.866 147.126 M166.448 148.135 C 165.926 148.343,167.006 148.963,169.800 150.060 C 172.129 150.974,173.796 151.683,177.227 153.219 C 177.910 153.524,179.002 153.955,179.653 154.176 C 180.304 154.397,181.502 154.891,182.316 155.275 C 183.129 155.659,183.872 155.973,183.967 155.973 C 184.061 155.973,184.799 156.301,185.606 156.701 C 187.198 157.491,187.750 157.599,187.750 157.121 C 187.750 156.722,184.492 154.984,182.232 154.176 C 181.264 153.830,179.716 153.276,178.791 152.945 C 177.233 152.387,175.999 151.867,173.196 150.586 C 172.041 150.059,166.867 147.955,166.804 147.988 C 166.784 147.998,166.624 148.064,166.448 148.135 M222.628 153.730 C 222.424 153.963,222.062 154.573,221.824 155.085 C 221.586 155.598,220.980 156.289,220.478 156.622 C 219.518 157.257,219.152 157.803,219.530 158.037 C 220.163 158.428,223.232 155.670,223.542 154.431 C 223.808 153.373,223.288 152.973,222.628 153.730 M225.894 155.637 C 223.877 157.733,223.369 158.399,223.788 158.399 C 224.108 158.399,224.851 157.879,225.618 157.117 C 226.070 156.668,226.607 156.199,226.811 156.076 C 227.838 155.454,228.994 153.304,228.300 153.305 C 228.211 153.305,227.129 154.355,225.894 155.637 M229.169 157.363 C 227.903 158.285,227.731 158.646,228.563 158.634 C 229.218 158.625,229.728 158.258,230.292 157.391 C 230.917 156.430,230.466 156.419,229.169 157.363 " stroke="none" fill="#000000" fill-rule="evenodd"></path><path id="path1" d="M0.000 38.084 C 0.000 63.311,0.082 76.167,0.243 76.167 C 0.376 76.167,0.485 75.957,0.485 75.700 C 0.485 73.537,2.883 69.181,5.511 66.572 C 8.079 64.021,8.984 63.535,16.616 60.604 C 17.283 60.348,18.320 60.035,18.921 59.910 C 19.521 59.785,21.431 59.365,23.166 58.976 C 24.900 58.588,27.574 58.089,29.109 57.868 C 30.643 57.646,32.498 57.359,33.232 57.229 C 41.548 55.762,83.032 55.533,94.986 56.889 C 96.633 57.076,104.304 57.685,108.672 57.976 C 110.606 58.105,112.899 58.320,113.766 58.454 C 115.834 58.773,119.779 59.131,123.105 59.302 C 124.572 59.377,126.701 59.545,127.835 59.675 C 128.969 59.805,130.988 60.028,132.323 60.171 C 134.996 60.456,136.461 60.657,140.085 61.236 C 142.339 61.596,145.737 62.048,152.941 62.946 C 155.690 63.289,159.987 63.701,166.889 64.284 C 170.245 64.568,172.999 64.877,176.834 65.401 C 178.235 65.593,180.238 65.857,181.285 65.990 C 182.332 66.122,183.642 66.335,184.196 66.463 C 185.490 66.761,188.165 66.774,188.345 66.483 C 188.548 66.155,187.348 63.743,185.801 61.371 C 185.671 61.170,185.490 60.847,185.399 60.653 C 184.493 58.712,182.803 56.399,178.346 50.997 C 172.536 43.958,167.193 34.342,167.839 32.090 C 168.370 30.238,169.283 29.043,171.255 27.619 C 174.770 25.082,177.290 24.394,186.659 23.418 C 188.526 23.223,191.092 22.895,192.359 22.689 C 193.626 22.483,196.209 22.102,198.098 21.843 C 205.318 20.852,208.982 19.670,216.510 15.900 C 223.921 12.190,224.151 12.084,226.678 11.248 C 227.743 10.896,229.524 10.186,230.635 9.670 C 233.258 8.453,233.846 8.501,233.833 9.933 C 233.813 12.244,232.007 13.952,224.840 18.435 C 221.392 20.592,219.510 22.746,216.239 28.277 C 213.759 32.472,212.507 34.207,210.349 36.440 C 209.145 37.687,208.653 38.351,208.878 38.425 C 209.404 38.597,213.995 38.941,214.676 38.859 C 216.121 38.686,222.470 38.305,227.168 38.109 C 230.731 37.961,232.626 37.779,233.475 37.501 C 235.695 36.775,238.063 35.847,240.024 34.934 C 241.092 34.437,242.511 33.832,243.178 33.590 C 243.845 33.347,244.500 33.073,244.633 32.981 C 247.563 30.949,264.203 29.637,265.872 31.305 C 266.988 32.422,266.291 33.087,263.069 33.976 C 259.503 34.959,256.625 36.049,254.647 37.165 C 253.750 37.670,252.942 38.084,252.850 38.084 C 252.581 38.084,251.061 39.303,251.061 39.519 C 251.061 39.627,254.418 39.786,258.520 39.872 C 262.623 39.958,266.689 40.132,267.556 40.259 C 270.143 40.637,298.487 40.857,301.759 40.525 C 316.111 39.066,327.286 39.134,334.079 40.720 C 335.426 41.035,337.474 41.238,340.327 41.341 C 346.543 41.565,351.629 42.192,357.032 43.403 C 358.184 43.661,359.563 43.944,360.097 44.032 C 360.631 44.119,362.159 44.550,363.493 44.990 C 364.827 45.429,366.410 45.865,367.010 45.959 C 368.546 46.199,370.166 46.686,371.276 47.242 C 371.798 47.503,372.881 48.048,373.681 48.453 C 374.482 48.857,375.998 49.429,377.050 49.722 C 382.449 51.229,389.289 56.001,391.313 59.673 C 393.394 63.446,394.231 67.545,394.535 75.440 C 394.817 82.777,395.410 92.803,395.639 94.118 C 395.767 94.851,395.982 96.434,396.116 97.635 C 396.652 102.431,396.840 103.619,397.290 105.084 C 397.548 105.923,397.840 107.206,397.939 107.935 C 398.038 108.663,398.204 109.427,398.308 109.633 C 398.412 109.838,398.751 110.688,399.062 111.522 C 399.373 112.356,399.712 113.038,399.814 113.038 C 399.916 113.038,400.000 87.605,400.000 56.519 L 400.000 0.000 200.000 0.000 L 0.000 0.000 0.000 38.084 M225.227 14.181 C 224.427 14.497,221.425 15.938,218.557 17.383 C 213.039 20.165,211.791 20.734,209.458 21.533 C 203.826 23.462,196.892 24.850,190.418 25.345 C 180.786 26.082,173.438 27.798,173.439 29.310 C 173.439 29.668,174.429 30.371,176.523 31.501 C 176.859 31.682,177.804 31.920,178.622 32.030 C 180.169 32.236,181.571 32.609,183.916 33.438 C 185.759 34.090,187.508 34.349,187.508 33.972 C 187.508 33.671,188.678 32.589,189.545 32.089 C 190.283 31.662,190.661 31.712,190.661 32.237 C 190.661 32.720,189.157 34.197,188.651 34.210 C 188.489 34.214,188.553 34.332,188.794 34.472 C 189.294 34.762,189.734 34.523,191.811 32.832 C 193.206 31.695,194.178 31.316,194.605 31.743 C 194.946 32.084,194.250 32.859,192.584 33.995 C 191.343 34.841,191.119 35.260,191.772 35.511 C 192.505 35.792,192.821 35.651,194.587 34.260 C 196.379 32.848,197.570 32.019,197.808 32.019 C 198.404 32.019,197.679 33.187,196.359 34.353 C 194.655 35.858,194.650 36.133,196.325 36.139 C 197.057 36.142,197.430 35.973,198.051 35.355 C 200.061 33.353,201.344 32.262,201.688 32.262 C 202.472 32.262,202.001 33.101,200.364 34.616 C 198.067 36.743,198.000 36.656,202.375 37.238 C 205.901 37.707,207.352 37.165,208.391 34.989 C 208.694 34.356,209.309 33.384,209.759 32.828 C 210.208 32.273,211.097 30.631,211.733 29.180 C 214.140 23.692,217.091 20.467,222.761 17.128 C 223.806 16.513,224.712 16.010,224.774 16.010 C 225.174 16.010,227.532 14.250,227.532 13.951 C 227.532 13.448,226.939 13.507,225.227 14.181 M171.174 31.247 C 170.093 32.442,171.045 36.291,173.192 39.413 C 173.594 39.997,173.924 40.590,173.924 40.730 C 173.924 41.855,178.494 48.340,182.052 52.260 C 183.368 53.711,187.412 59.483,187.924 60.643 C 188.151 61.156,190.583 65.197,191.302 66.255 C 191.995 67.275,193.208 67.802,195.391 68.033 C 196.855 68.188,197.682 68.315,201.698 68.996 C 205.426 69.628,208.402 70.078,210.673 70.352 C 211.874 70.498,213.893 70.772,215.161 70.962 C 220.141 71.707,225.690 72.066,240.995 72.631 C 242.960 72.704,244.970 72.941,246.331 73.259 C 247.532 73.541,249.551 73.874,250.819 74.000 C 252.086 74.126,255.143 74.446,257.611 74.711 C 260.079 74.976,262.753 75.252,263.554 75.324 C 264.354 75.396,265.664 75.556,266.465 75.679 C 267.265 75.802,269.721 76.074,271.922 76.283 C 274.124 76.492,277.289 76.831,278.957 77.037 C 283.589 77.607,285.304 77.802,289.388 78.222 C 291.455 78.434,294.294 78.768,295.694 78.964 C 301.087 79.717,302.885 79.840,311.704 80.058 C 316.707 80.182,321.815 80.355,323.055 80.443 C 327.192 80.735,341.582 79.866,347.918 78.940 C 349.224 78.749,350.806 78.592,351.435 78.592 C 354.280 78.588,361.120 76.888,362.330 75.883 C 362.558 75.694,362.600 75.177,362.487 73.955 C 362.285 71.783,363.082 71.632,363.466 73.769 C 363.729 75.230,364.285 75.537,366.323 75.348 C 368.438 75.151,370.441 74.595,371.176 73.999 C 371.829 73.471,371.658 72.379,369.312 62.098 C 368.490 58.497,368.389 57.808,368.659 57.641 C 369.114 57.360,369.735 58.814,370.046 60.885 C 370.136 61.486,370.478 63.123,370.807 64.524 C 371.136 65.925,371.577 67.835,371.786 68.769 C 372.606 72.424,373.200 73.540,374.133 73.181 C 374.884 72.893,374.671 71.013,373.123 64.281 C 372.647 62.213,372.211 59.980,372.154 59.317 C 371.924 56.648,373.301 59.567,374.381 64.039 C 376.578 73.129,376.364 72.670,378.033 71.859 C 380.548 70.638,383.791 68.438,387.091 65.717 C 387.323 65.525,387.361 64.929,387.241 63.333 C 387.102 61.494,387.134 61.184,387.476 61.052 C 387.693 60.969,387.871 61.002,387.871 61.126 C 387.871 61.959,388.923 64.039,389.344 64.039 C 390.939 64.039,389.401 61.503,385.476 57.661 C 381.574 53.841,380.203 53.715,381.406 57.289 C 382.285 59.899,382.655 61.772,382.656 63.610 C 382.656 65.998,382.286 65.547,381.415 62.098 C 380.994 60.431,380.405 58.247,380.105 57.247 C 379.806 56.246,379.509 54.991,379.445 54.457 C 379.291 53.172,378.918 52.800,377.256 52.276 C 376.491 52.034,375.155 51.586,374.287 51.281 C 373.420 50.975,372.110 50.546,371.377 50.328 C 370.643 50.110,369.278 49.677,368.344 49.365 C 366.737 48.829,360.788 47.130,358.156 46.456 C 356.806 46.109,353.692 45.573,349.666 44.993 C 348.199 44.782,346.398 44.505,345.664 44.378 C 344.930 44.251,342.965 44.038,341.298 43.905 C 339.630 43.772,336.683 43.497,334.748 43.295 C 322.089 41.970,313.081 41.785,305.882 42.702 C 297.374 43.785,269.015 43.930,261.727 42.927 C 260.856 42.807,256.544 42.700,252.146 42.688 C 231.604 42.634,218.305 42.065,212.371 40.986 C 210.103 40.574,206.665 40.032,204.730 39.781 C 202.796 39.531,200.722 39.216,200.121 39.082 C 199.086 38.851,197.704 38.645,193.390 38.080 C 191.275 37.803,185.586 36.726,184.475 36.392 C 184.075 36.272,183.093 36.060,182.292 35.920 C 181.492 35.781,179.964 35.235,178.896 34.706 C 177.829 34.178,176.525 33.615,175.999 33.455 C 175.472 33.294,174.298 32.633,173.390 31.985 C 171.476 30.619,171.681 30.687,171.174 31.247 M252.517 33.393 C 249.195 33.963,244.069 35.505,241.480 36.713 C 240.813 37.025,239.448 37.578,238.448 37.943 C 237.447 38.308,236.052 38.856,235.347 39.160 L 234.065 39.714 235.199 39.869 C 235.822 39.954,238.014 40.024,240.071 40.024 L 243.809 40.024 246.881 38.387 C 248.570 37.486,251.430 36.149,253.236 35.415 C 257.117 33.838,257.470 33.372,254.821 33.321 C 253.887 33.303,252.850 33.336,252.517 33.393 M178.374 38.872 C 178.973 39.839,179.801 41.231,180.215 41.965 C 181.889 44.932,182.978 46.778,184.003 48.387 C 185.227 50.306,185.270 50.455,184.597 50.455 C 184.330 50.455,184.112 50.360,184.112 50.245 C 184.112 50.129,182.903 48.355,181.427 46.303 C 178.738 42.566,176.674 39.115,176.584 38.205 C 176.418 36.532,177.077 36.777,178.374 38.872 M185.143 43.966 C 185.861 45.067,186.709 46.404,187.028 46.938 C 187.347 47.471,187.695 47.944,187.800 47.989 C 187.906 48.033,187.993 48.166,187.993 48.284 C 187.993 48.403,188.539 49.335,189.206 50.357 C 191.481 53.842,190.386 53.633,187.696 50.069 C 186.799 48.880,186.062 47.814,186.058 47.700 C 186.055 47.586,185.734 47.091,185.345 46.600 C 184.052 44.967,183.217 43.097,183.357 42.147 C 183.435 41.621,183.969 42.165,185.143 43.966 M188.643 43.845 C 189.065 44.370,191.258 47.660,192.465 49.577 C 193.329 50.948,193.389 52.027,192.553 51.155 C 191.421 49.974,188.242 45.072,187.890 43.965 C 187.679 43.299,188.146 43.225,188.643 43.845 M195.848 47.726 C 197.676 50.566,198.097 51.668,197.352 51.668 C 196.663 51.668,194.057 47.451,194.057 46.336 C 194.057 45.614,194.919 46.283,195.848 47.726 M200.732 48.516 C 201.402 49.782,202.214 51.284,202.537 51.852 C 203.275 53.151,202.928 53.808,201.976 52.914 C 201.139 52.127,198.666 47.497,198.666 46.717 C 198.666 45.426,199.468 46.124,200.732 48.516 M297.434 47.088 C 298.145 47.237,299.833 47.620,301.185 47.937 C 302.916 48.343,304.365 48.514,306.080 48.514 C 308.561 48.514,308.911 48.629,309.467 49.623 C 310.217 50.962,319.645 50.697,327.592 49.112 C 337.051 47.226,339.271 47.231,345.179 49.150 C 347.448 49.888,347.718 50.053,347.514 50.582 C 347.340 51.036,344.858 50.932,343.924 50.432 C 341.451 49.109,335.214 49.423,326.277 51.322 C 324.753 51.645,323.248 51.910,322.934 51.910 C 321.006 51.910,320.285 52.941,321.031 54.631 C 321.480 55.649,322.350 58.520,323.332 62.220 C 323.757 63.820,324.207 65.466,324.332 65.875 C 324.620 66.815,324.627 68.093,324.346 68.267 C 324.227 68.340,324.077 68.155,324.011 67.856 C 323.945 67.558,323.506 66.222,323.035 64.888 C 322.565 63.554,321.503 60.376,320.676 57.826 C 319.849 55.276,319.085 53.048,318.977 52.875 C 318.841 52.654,317.407 52.461,314.212 52.234 C 310.641 51.979,309.271 51.781,307.944 51.328 C 307.010 51.008,305.155 50.565,303.820 50.342 C 302.486 50.120,300.194 49.657,298.727 49.314 C 296.094 48.698,295.971 48.692,289.607 48.855 C 283.959 48.999,283.118 48.973,282.846 48.646 C 281.886 47.489,293.463 46.253,297.434 47.088 M257.899 47.406 C 258.741 47.597,260.544 47.829,261.906 47.922 C 264.677 48.110,265.436 48.489,264.796 49.363 C 264.401 49.904,261.860 49.626,257.887 48.610 C 256.639 48.291,255.574 48.029,255.522 48.029 C 255.470 48.029,255.428 47.811,255.428 47.544 C 255.428 46.956,255.817 46.934,257.899 47.406 M205.714 50.058 C 205.888 50.610,206.105 51.170,206.197 51.304 C 206.445 51.665,208.050 55.340,208.245 55.994 C 208.396 56.497,208.362 56.533,207.946 56.310 C 207.046 55.828,203.807 48.881,204.115 48.093 C 204.343 47.509,205.270 48.648,205.714 50.058 M209.781 50.030 C 210.046 50.464,210.772 51.801,211.395 53.002 C 212.018 54.203,212.906 55.738,213.368 56.414 C 214.229 57.671,214.284 58.557,213.493 58.411 C 212.614 58.248,208.611 51.248,208.611 49.875 C 208.611 48.993,209.195 49.070,209.781 50.030 M212.998 50.038 C 213.408 50.353,214.147 51.424,215.863 54.193 C 216.449 55.139,217.622 56.981,218.470 58.286 C 219.318 59.592,220.012 60.729,220.012 60.814 C 220.012 60.899,220.195 61.171,220.419 61.418 C 220.720 61.751,220.755 61.938,220.553 62.140 C 220.071 62.622,219.201 61.779,217.337 59.023 C 216.361 57.579,215.245 56.030,214.859 55.581 C 214.472 55.132,213.983 54.368,213.772 53.883 C 213.561 53.398,213.071 52.374,212.684 51.607 C 211.854 49.966,211.995 49.267,212.998 50.038 M220.052 53.476 C 221.893 55.915,224.236 60.573,223.897 61.121 C 223.583 61.630,218.072 53.353,218.072 52.371 C 218.072 51.736,219.225 52.379,220.052 53.476 M329.546 55.003 C 330.496 57.258,331.832 61.239,331.836 61.825 C 331.844 63.248,329.547 58.542,328.566 55.126 C 328.202 53.859,329.020 53.756,329.546 55.003 M226.469 56.523 C 229.069 59.844,230.460 62.215,230.433 63.280 C 230.406 64.340,224.136 55.603,224.136 54.506 C 224.136 53.997,225.237 54.949,226.469 56.523 M337.708 56.222 C 337.925 56.986,338.235 58.211,338.396 58.945 C 338.558 59.679,338.840 60.762,339.024 61.353 C 339.447 62.716,339.444 63.069,339.008 63.069 C 338.438 63.069,337.036 58.495,336.758 55.729 C 336.594 54.095,337.191 54.405,337.708 56.222 M334.101 56.716 C 334.573 59.066,334.808 59.931,335.267 61.007 C 335.551 61.674,336.033 63.093,336.337 64.160 C 336.640 65.227,337.024 66.483,337.190 66.950 C 337.356 67.417,337.638 68.210,337.818 68.713 C 338.197 69.776,338.241 70.742,337.919 70.941 C 337.795 71.018,337.620 70.833,337.528 70.531 C 337.437 70.229,337.218 69.654,337.042 69.254 C 336.865 68.854,336.379 67.380,335.961 65.979 C 335.543 64.579,334.943 62.614,334.626 61.613 C 333.000 56.474,332.706 54.943,333.474 55.624 C 333.747 55.866,334.029 56.357,334.101 56.716 M325.252 58.340 C 325.710 59.540,326.301 61.013,326.566 61.613 C 327.805 64.422,329.037 68.672,328.676 68.895 C 328.215 69.180,328.098 69.023,327.586 67.435 C 327.350 66.701,326.913 65.555,326.614 64.888 C 323.925 58.874,323.041 55.893,324.005 56.078 C 324.277 56.131,324.705 56.908,325.252 58.340 M345.909 57.429 C 347.496 61.663,349.481 68.253,349.833 70.458 C 349.881 70.757,349.751 70.967,349.484 71.022 C 349.031 71.115,348.090 69.324,348.090 68.368 C 348.090 68.103,347.723 66.775,347.275 65.417 C 346.827 64.059,346.217 62.074,345.918 61.007 C 345.620 59.939,345.223 58.626,345.035 58.088 C 344.235 55.793,345.063 55.169,345.909 57.429 M350.144 59.255 C 350.504 60.619,350.939 62.116,351.112 62.583 C 352.422 66.118,353.560 71.559,352.989 71.559 C 352.753 71.559,352.274 70.196,351.155 66.343 C 349.233 59.726,348.533 56.978,348.674 56.611 C 348.972 55.835,349.487 56.762,350.144 59.255 M358.683 57.946 C 359.105 58.865,359.744 60.638,360.101 61.888 C 360.459 63.138,360.863 64.433,361.000 64.767 C 361.457 65.878,362.082 68.763,361.965 69.215 C 361.570 70.732,359.624 66.116,358.156 60.180 C 357.097 55.900,357.315 54.976,358.683 57.946 M341.493 58.539 C 341.756 59.229,342.215 60.612,342.512 61.613 C 342.810 62.614,343.216 63.978,343.414 64.645 C 344.701 68.983,345.341 73.167,344.626 72.573 C 344.276 72.283,343.996 71.270,342.838 66.101 C 342.628 65.167,341.962 63.147,341.358 61.613 C 340.144 58.531,339.814 57.361,340.012 56.843 C 340.229 56.280,340.943 57.099,341.493 58.539 M353.666 57.550 C 354.364 59.131,355.246 62.459,355.966 66.222 C 356.158 67.223,356.544 69.176,356.824 70.563 C 357.194 72.392,357.261 73.157,357.068 73.350 C 356.698 73.721,356.412 73.201,356.083 71.559 C 355.813 70.214,355.568 69.338,354.963 67.556 C 354.038 64.828,352.177 57.026,352.374 56.701 C 352.662 56.228,353.254 56.617,353.666 57.550 M366.163 57.186 C 367.321 59.998,369.008 69.367,368.540 70.387 C 368.295 70.920,368.272 70.898,368.121 69.982 C 368.033 69.448,367.856 68.617,367.728 68.134 C 367.600 67.652,367.495 66.819,367.495 66.284 C 367.495 65.749,367.327 64.908,367.121 64.415 C 366.915 63.922,366.650 63.062,366.532 62.505 C 366.414 61.948,366.150 60.837,365.945 60.036 C 365.369 57.788,365.532 55.654,366.163 57.186 M376.313 58.156 C 377.378 60.248,379.380 67.534,378.995 67.918 C 378.011 68.903,374.713 59.676,375.405 57.873 C 375.622 57.308,375.929 57.404,376.313 58.156 M53.608 58.577 C 44.093 58.947,37.481 59.348,35.779 59.659 C 35.112 59.780,33.529 59.947,32.262 60.030 C 29.246 60.226,24.763 60.953,18.921 62.193 C 16.556 62.694,13.068 63.915,11.613 64.749 C 11.396 64.873,10.305 65.447,9.189 66.023 C 5.409 67.973,4.536 69.271,2.766 75.561 C 1.674 79.442,1.777 84.717,3.018 88.425 C 3.506 89.882,4.112 92.005,4.365 93.142 C 4.618 94.279,4.985 95.591,5.180 96.058 C 6.448 99.095,7.804 106.986,7.931 112.068 C 7.989 114.403,8.127 116.531,8.238 116.798 C 8.349 117.065,8.556 118.429,8.699 119.830 C 9.037 123.160,9.569 126.075,10.047 127.219 C 10.258 127.724,10.431 128.298,10.431 128.495 C 10.431 128.868,10.743 129.632,11.898 132.080 C 13.088 134.601,15.128 136.048,14.853 134.175 C 14.354 130.775,18.033 127.444,22.017 127.688 C 25.498 127.902,28.721 128.218,29.109 128.384 C 29.818 128.687,36.549 128.830,60.279 129.048 C 73.525 129.169,85.218 129.379,86.355 129.516 C 87.489 129.652,89.236 129.862,90.237 129.982 C 95.183 130.577,101.480 131.238,105.518 131.588 C 107.987 131.801,111.207 132.134,112.674 132.326 C 114.142 132.519,116.489 132.795,117.890 132.941 C 119.290 133.086,121.092 133.304,121.892 133.425 C 122.693 133.546,124.930 133.760,126.865 133.901 C 128.799 134.042,130.655 134.218,130.988 134.292 C 131.322 134.366,132.741 134.520,134.142 134.634 C 138.765 135.010,146.641 136.016,152.092 136.927 C 153.941 137.235,156.099 137.546,161.431 138.273 C 162.365 138.400,164.384 138.676,165.919 138.885 C 167.453 139.095,169.683 139.423,170.874 139.615 C 172.064 139.807,173.372 139.964,173.779 139.964 C 174.186 139.964,175.340 140.121,176.344 140.313 C 178.637 140.752,181.929 141.274,188.599 142.256 C 192.860 142.883,196.395 143.115,205.368 143.359 C 217.269 143.683,223.167 144.090,228.138 144.929 C 229.206 145.109,231.880 145.432,234.081 145.648 C 236.283 145.863,239.175 146.149,240.509 146.283 C 244.441 146.679,248.497 146.995,252.638 147.228 C 254.773 147.349,257.283 147.560,258.217 147.698 C 261.587 148.194,263.096 148.456,264.645 148.813 C 265.512 149.013,267.586 149.285,269.254 149.418 C 270.922 149.551,273.050 149.767,273.984 149.898 C 274.918 150.029,276.992 150.143,278.593 150.152 C 280.194 150.161,282.596 150.276,283.930 150.408 C 290.971 151.102,310.464 151.414,313.062 150.874 C 313.818 150.718,316.304 150.550,318.588 150.502 C 324.976 150.367,330.963 149.747,337.174 148.577 C 338.308 148.364,339.914 148.096,340.744 147.982 C 341.573 147.868,342.774 147.655,343.412 147.508 C 345.359 147.061,350.053 146.019,351.850 145.635 C 360.101 143.875,361.970 143.392,366.283 141.902 C 368.617 141.096,372.820 139.667,375.622 138.727 C 381.644 136.706,384.212 135.552,386.250 133.949 C 387.075 133.300,388.405 132.341,389.205 131.818 C 395.252 127.867,398.045 121.475,396.402 115.343 C 396.149 114.398,395.922 113.323,394.918 108.308 C 393.739 102.421,392.876 94.319,392.475 85.385 C 391.578 65.371,391.701 65.776,387.386 68.642 C 386.252 69.395,384.997 70.165,384.597 70.354 C 384.196 70.543,383.578 70.931,383.223 71.216 C 381.476 72.618,376.092 75.085,372.104 76.310 C 371.104 76.618,369.194 77.205,367.861 77.616 C 366.527 78.026,364.890 78.457,364.222 78.572 C 363.554 78.688,362.080 79.022,360.946 79.316 C 358.579 79.929,357.924 80.046,351.486 81.013 C 348.884 81.404,345.609 81.914,344.209 82.147 C 341.977 82.518,339.724 82.572,326.016 82.583 C 310.385 82.595,307.818 82.502,299.576 81.622 C 296.115 81.252,290.315 80.692,285.870 80.298 C 278.082 79.608,274.744 79.267,272.771 78.957 C 269.703 78.476,261.743 77.533,258.411 77.256 C 257.450 77.176,256.331 77.015,255.924 76.898 C 255.518 76.782,252.811 76.514,249.909 76.304 C 247.007 76.094,243.889 75.812,242.980 75.679 C 242.071 75.545,237.923 75.272,233.762 75.073 C 229.602 74.873,225.379 74.589,224.378 74.442 C 223.378 74.295,221.686 74.085,220.619 73.975 C 219.551 73.865,217.968 73.664,217.101 73.529 C 216.234 73.393,214.215 73.109,212.614 72.897 C 205.915 72.010,202.379 71.501,199.151 70.957 C 198.017 70.766,195.616 70.427,193.814 70.204 C 192.013 69.981,189.791 69.598,188.877 69.353 C 187.216 68.908,182.665 68.374,176.713 67.927 C 174.979 67.797,172.577 67.580,171.377 67.446 C 170.176 67.311,168.047 67.086,166.646 66.944 C 165.246 66.803,162.735 66.534,161.067 66.347 C 159.400 66.160,157.544 65.952,156.944 65.887 C 155.501 65.729,152.912 65.325,150.515 64.884 C 147.787 64.383,141.809 63.598,138.508 63.309 C 136.974 63.174,135.446 63.011,135.112 62.947 C 134.779 62.882,132.868 62.720,130.867 62.587 C 122.210 62.010,115.070 61.361,112.310 60.901 C 109.982 60.513,106.247 60.143,102.244 59.904 C 100.109 59.777,97.216 59.510,95.816 59.311 C 94.415 59.112,92.286 58.831,91.086 58.687 C 87.717 58.282,63.050 58.209,53.608 58.577 M318.011 59.651 C 318.011 59.876,318.107 60.164,318.224 60.291 C 318.341 60.418,318.768 61.613,319.174 62.947 C 319.580 64.281,320.211 66.355,320.576 67.556 C 321.350 70.101,321.612 72.044,321.183 72.044 C 320.803 72.044,320.301 70.805,319.314 67.435 C 318.865 65.901,318.403 64.427,318.288 64.160 C 317.327 61.934,316.604 58.735,316.976 58.362 C 317.211 58.128,318.011 59.125,318.011 59.651 M314.469 59.127 C 315.405 62.199,317.107 70.308,316.919 70.797 C 316.772 71.182,316.074 70.739,316.066 70.255 C 316.064 70.105,315.463 68.129,314.732 65.864 C 313.466 61.944,313.040 59.388,313.564 58.864 C 313.865 58.563,314.339 58.700,314.469 59.127 M362.863 61.850 C 363.943 65.651,364.760 70.510,364.382 70.887 C 364.167 71.103,364.099 70.968,364.099 70.321 C 364.099 69.854,363.997 69.369,363.872 69.242 C 363.488 68.853,361.366 60.192,361.543 59.736 C 361.795 59.084,362.313 59.913,362.863 61.850 M333.400 66.184 C 334.105 68.029,334.204 69.133,333.665 69.133 C 333.203 69.133,332.948 68.623,332.471 66.748 C 331.661 63.565,332.260 63.201,333.400 66.184 M256.121 65.262 C 260.161 65.768,261.770 66.501,260.657 67.328 C 260.039 67.787,259.498 67.770,256.818 67.208 C 255.586 66.950,254.006 66.667,253.305 66.579 C 251.928 66.406,251.588 66.150,252.028 65.619 C 252.273 65.325,252.559 65.235,253.857 65.045 C 253.994 65.025,255.013 65.123,256.121 65.262 M0.000 165.143 L 0.000 242.571 200.000 242.571 L 400.000 242.571 400.000 183.505 C 400.000 151.019,399.950 124.439,399.888 124.439 C 399.826 124.439,399.378 125.266,398.891 126.277 C 396.977 130.257,393.074 133.388,384.350 137.941 C 377.443 141.546,373.331 143.373,369.921 144.350 C 369.321 144.522,367.956 144.980,366.889 145.368 C 365.822 145.756,363.802 146.489,362.401 146.998 C 358.459 148.431,356.643 148.949,354.275 149.319 C 352.039 149.669,348.430 150.255,346.270 150.619 C 342.479 151.260,336.979 152.084,334.870 152.329 C 333.535 152.483,331.828 152.715,331.075 152.843 C 329.481 153.115,326.349 153.409,319.588 153.920 C 316.919 154.122,313.972 154.401,313.038 154.539 C 310.421 154.926,304.558 155.090,304.001 154.792 C 303.706 154.634,299.036 154.439,291.786 154.282 C 285.330 154.141,279.339 153.923,278.472 153.797 C 272.885 152.986,265.770 152.225,260.361 151.861 C 258.739 151.752,257.309 151.599,257.183 151.521 C 257.057 151.443,255.219 151.262,253.098 151.119 C 247.604 150.747,245.345 150.534,239.177 149.804 C 231.011 148.838,230.438 149.029,234.494 151.361 C 236.935 152.764,237.934 153.367,241.896 155.829 C 242.734 156.350,244.357 157.466,245.502 158.309 C 247.027 159.433,247.925 159.915,248.865 160.117 C 250.496 160.467,251.679 161.511,252.711 163.511 C 254.602 167.179,253.142 170.471,247.583 175.071 C 246.494 175.972,245.454 176.852,245.270 177.027 C 243.519 178.698,234.932 184.211,223.651 190.907 C 223.451 191.026,220.831 192.635,217.829 194.483 C 214.827 196.330,211.917 197.974,211.363 198.136 C 210.808 198.297,209.935 198.765,209.422 199.175 C 208.354 200.030,202.487 203.752,201.577 204.153 C 200.201 204.758,197.038 205.943,196.797 205.943 C 196.655 205.943,196.226 206.106,195.843 206.305 C 195.461 206.505,194.951 206.668,194.710 206.669 C 194.469 206.670,193.432 207.096,192.406 207.616 C 191.380 208.136,190.112 208.696,189.589 208.861 C 189.066 209.026,188.302 209.357,187.891 209.596 C 187.480 209.835,186.380 210.271,185.446 210.564 C 184.512 210.858,183.257 211.294,182.656 211.535 C 178.650 213.140,174.596 214.676,174.365 214.676 C 174.095 214.676,169.889 216.758,166.953 218.346 C 166.122 218.795,164.364 220.036,163.049 221.104 C 161.733 222.171,159.303 224.144,157.648 225.489 C 154.357 228.163,153.015 229.135,150.657 230.558 C 149.801 231.075,148.436 232.006,147.625 232.628 C 144.808 234.785,144.164 234.684,144.396 232.120 C 144.582 230.076,145.430 228.848,149.537 224.678 C 153.155 221.003,155.352 218.045,155.951 216.039 C 156.076 215.623,156.411 214.682,156.696 213.948 C 156.982 213.214,157.543 211.530,157.944 210.204 C 159.343 205.577,161.458 201.682,163.893 199.246 C 166.259 196.881,164.122 196.867,159.491 199.218 C 152.583 202.724,150.877 203.329,144.946 204.374 C 140.264 205.199,137.374 206.585,132.602 210.296 C 126.627 214.942,122.148 216.922,113.159 218.891 C 109.403 219.714,108.423 219.694,107.934 218.780 C 107.483 217.937,108.190 217.282,111.439 215.532 C 114.627 213.815,117.501 211.831,119.345 210.075 C 119.945 209.503,121.573 207.985,122.961 206.701 C 124.350 205.417,125.987 203.825,126.600 203.163 C 128.970 200.602,132.664 197.100,134.870 195.324 C 136.137 194.303,138.001 192.755,139.012 191.883 C 140.023 191.011,141.874 189.424,143.126 188.357 C 144.378 187.289,146.225 185.649,147.231 184.711 C 150.323 181.828,157.018 176.972,160.097 175.379 C 160.964 174.930,162.001 174.328,162.401 174.041 C 162.802 173.755,163.893 173.103,164.827 172.594 C 165.761 172.084,166.907 171.430,167.374 171.140 C 167.841 170.851,169.833 169.828,171.801 168.869 C 174.543 167.532,175.379 167.017,175.379 166.664 C 175.379 165.083,168.427 161.466,160.703 159.029 C 158.702 158.397,156.683 157.734,156.216 157.554 C 152.732 156.215,152.042 155.973,151.698 155.973 C 151.484 155.973,150.802 155.811,150.184 155.612 C 148.745 155.149,142.330 153.927,137.295 153.157 C 135.840 152.934,131.370 152.719,125.167 152.572 C 119.763 152.445,112.477 152.235,108.974 152.107 C 105.472 151.979,101.298 151.939,99.699 152.020 C 97.340 152.138,96.493 152.085,95.205 151.736 C 93.900 151.383,93.068 151.333,90.532 151.458 C 81.437 151.904,80.459 151.899,74.591 151.370 C 71.389 151.082,66.095 150.751,62.826 150.636 C 54.688 150.348,50.351 149.976,47.059 149.285 C 45.525 148.962,43.928 148.698,43.511 148.697 C 43.095 148.697,42.289 148.532,41.722 148.332 C 41.155 148.132,40.318 147.968,39.862 147.968 C 39.112 147.968,38.135 147.805,33.960 146.980 C 30.192 146.235,21.064 143.102,18.744 141.757 C 18.180 141.430,16.965 140.779,16.044 140.312 C 13.949 139.247,9.866 135.179,9.000 133.293 C 8.694 132.626,8.186 131.584,7.872 130.977 C 7.557 130.370,7.083 128.951,6.818 127.823 C 6.552 126.696,6.215 125.337,6.069 124.803 C 5.922 124.269,5.754 121.267,5.695 118.132 C 5.540 109.930,5.391 107.627,4.849 105.033 C 4.584 103.766,4.202 101.820,3.999 100.709 C 3.796 99.598,3.400 98.069,3.120 97.313 C 2.840 96.556,2.416 95.087,2.178 94.048 C 1.665 91.814,0.527 88.271,0.218 87.944 C 0.089 87.808,0.000 119.318,0.000 165.143 M22.377 131.234 C 21.739 131.496,21.707 131.815,22.181 133.224 C 22.482 134.118,23.350 137.447,23.644 138.835 C 23.772 139.438,23.548 139.964,23.163 139.964 C 22.794 139.964,22.491 139.178,21.713 136.204 C 20.571 131.839,20.298 131.457,19.112 132.562 C 17.830 133.755,17.717 134.951,18.713 136.791 C 19.591 138.411,21.382 139.964,22.374 139.964 C 22.609 139.964,22.802 140.055,22.802 140.167 C 22.802 140.394,24.983 141.506,26.525 142.065 C 28.582 142.810,32.675 143.745,36.386 144.318 C 37.386 144.472,38.969 144.757,39.903 144.951 C 40.837 145.146,42.474 145.460,43.542 145.649 C 44.609 145.838,46.410 146.158,47.544 146.360 C 51.266 147.023,61.401 147.965,64.891 147.974 C 66.090 147.977,68.817 148.137,70.952 148.330 C 73.974 148.604,79.492 148.684,95.867 148.689 C 116.528 148.696,122.951 148.875,130.382 149.652 C 131.583 149.777,133.548 149.941,134.748 150.017 C 144.827 150.649,154.066 152.704,158.848 155.376 C 159.435 155.705,160.009 155.973,160.124 155.973 C 160.457 155.973,170.432 160.967,171.221 161.528 C 171.615 161.808,172.009 162.038,172.098 162.038 C 172.267 162.038,174.187 163.323,174.981 163.967 C 175.235 164.173,175.930 164.755,176.527 165.260 C 177.714 166.265,177.848 166.267,179.583 165.297 C 181.797 164.060,181.919 163.342,180.058 162.483 C 179.419 162.187,178.505 161.704,178.027 161.408 C 177.549 161.112,176.213 160.478,175.059 160.001 C 171.248 158.423,164.231 154.676,164.224 154.215 C 164.215 153.695,166.146 154.493,172.638 157.691 C 175.867 159.281,178.552 160.582,178.605 160.582 C 178.657 160.582,179.618 161.128,180.739 161.795 C 182.892 163.076,183.665 163.245,184.543 162.630 C 186.198 161.471,184.401 159.850,178.632 157.301 C 174.623 155.529,174.399 155.436,172.226 154.651 C 167.006 152.765,164.715 151.607,166.205 151.607 C 167.100 151.607,176.645 155.201,177.186 155.742 C 177.313 155.869,177.559 155.973,177.734 155.973 C 178.342 155.973,183.662 158.653,184.963 159.614 C 187.223 161.283,187.915 161.107,193.433 157.453 C 194.426 156.796,196.747 154.160,197.361 152.995 C 197.791 152.176,197.670 151.947,196.566 151.486 C 195.307 150.959,195.636 150.496,197.195 150.600 C 198.326 150.676,198.459 150.635,198.385 150.237 C 198.302 149.789,195.302 148.051,194.518 147.996 C 194.304 147.981,193.649 147.718,193.062 147.411 C 188.996 145.286,183.792 143.955,184.177 145.139 C 184.277 145.447,188.871 147.832,189.827 148.072 C 190.152 148.153,190.418 148.327,190.418 148.458 C 190.418 148.589,190.698 148.696,191.039 148.696 C 191.381 148.696,191.599 148.795,191.524 148.916 C 191.379 149.151,188.899 148.465,188.761 148.152 C 188.716 148.051,188.407 147.968,188.072 147.968 C 187.257 147.968,181.994 145.879,181.079 145.193 C 180.132 144.481,179.143 144.196,176.419 143.848 C 172.617 143.362,172.763 144.268,176.731 145.782 C 178.884 146.603,187.612 149.603,189.691 150.237 C 192.104 150.972,194.906 152.360,194.906 152.820 C 194.906 153.338,193.947 153.224,192.355 152.517 C 191.624 152.191,190.643 151.783,190.176 151.609 C 189.709 151.434,188.999 151.158,188.599 150.995 C 187.704 150.630,180.759 148.298,179.260 147.860 C 178.660 147.684,175.931 146.775,173.196 145.839 C 168.724 144.308,164.622 143.171,160.825 142.408 C 159.013 142.044,154.721 141.236,152.941 140.925 C 152.141 140.785,150.722 140.515,149.788 140.325 C 147.549 139.871,140.002 138.943,136.082 138.640 C 129.227 138.111,121.230 137.319,118.860 136.935 C 116.224 136.508,113.507 136.191,106.489 135.490 C 103.786 135.220,98.749 134.833,95.209 134.625 C 85.924 134.077,80.811 133.656,80.156 133.385 C 79.449 133.092,76.776 133.040,51.668 132.835 C 44.970 132.780,42.571 132.676,40.873 132.366 C 36.970 131.653,37.050 131.588,37.700 134.923 C 38.406 138.541,38.553 139.550,38.409 139.784 C 38.225 140.081,37.765 138.783,37.096 136.082 C 36.249 132.661,36.013 132.089,35.413 131.999 C 34.508 131.863,34.479 132.230,35.195 134.748 C 36.764 140.266,35.256 139.564,33.482 133.951 C 32.854 131.965,32.714 131.847,30.712 131.604 L 29.283 131.430 29.425 132.483 C 29.503 133.062,29.736 134.409,29.943 135.476 C 30.818 139.990,31.143 142.133,30.978 142.299 C 30.735 142.541,30.096 141.650,30.086 141.055 C 30.071 140.161,27.636 132.099,27.253 131.676 C 26.800 131.175,25.510 130.851,25.201 131.160 C 25.069 131.292,25.321 132.456,25.833 134.072 C 26.558 136.360,27.345 141.516,26.770 140.206 C 26.682 140.006,26.532 139.788,26.437 139.721 C 26.342 139.654,25.722 137.690,25.059 135.355 C 23.776 130.833,23.687 130.697,22.377 131.234 M173.148 147.662 C 174.389 148.130,175.539 148.648,175.703 148.812 C 175.867 148.976,176.325 149.170,176.721 149.242 C 177.421 149.370,180.588 150.440,181.565 150.878 C 181.831 150.998,182.650 151.331,183.384 151.619 C 184.118 151.907,184.936 152.232,185.203 152.341 C 185.470 152.451,186.616 152.898,187.750 153.336 C 190.006 154.206,191.389 155.075,191.389 155.622 C 191.389 156.138,190.992 156.055,189.856 155.299 C 189.298 154.928,188.569 154.503,188.235 154.354 C 187.902 154.205,186.918 153.745,186.048 153.330 C 185.179 152.916,184.283 152.577,184.058 152.577 C 183.833 152.577,183.399 152.478,183.092 152.357 C 182.786 152.236,181.170 151.622,179.503 150.993 C 177.835 150.364,176.252 149.760,175.985 149.651 C 175.719 149.541,174.684 149.118,173.686 148.710 C 172.688 148.302,171.742 147.968,171.584 147.968 C 171.101 147.968,168.341 146.472,168.463 146.275 C 168.596 146.059,170.017 146.480,173.148 147.662 M194.239 146.163 C 193.656 146.766,194.872 147.571,196.967 147.968 C 199.123 148.377,200.100 147.370,198.284 146.611 C 197.283 146.193,194.508 145.886,194.239 146.163 M202.894 146.989 C 202.562 147.124,202.173 147.787,201.742 148.955 C 200.370 152.670,194.801 159.533,192.531 160.307 C 192.025 160.480,190.497 161.284,189.135 162.094 C 187.773 162.904,185.200 164.317,183.417 165.234 C 181.635 166.150,179.397 167.413,178.445 168.040 C 177.492 168.666,175.676 169.703,174.409 170.344 C 166.493 174.345,164.123 175.684,162.887 176.851 C 162.486 177.229,161.777 177.710,161.310 177.921 C 160.843 178.132,159.861 178.740,159.127 179.273 C 158.393 179.806,156.688 180.849,155.338 181.591 C 153.988 182.334,152.078 183.652,151.093 184.521 C 150.108 185.390,148.266 186.927,146.998 187.936 C 145.731 188.945,143.544 190.872,142.138 192.217 C 138.785 195.426,134.933 198.666,134.469 198.666 C 133.801 198.666,132.045 200.129,129.740 202.605 C 126.978 205.571,126.372 206.231,125.866 206.820 C 125.649 207.072,124.444 208.074,123.186 209.047 C 121.876 210.060,120.701 211.183,120.437 211.673 C 120.184 212.145,119.689 212.679,119.337 212.860 C 117.935 213.585,116.666 214.850,117.034 215.155 C 117.916 215.887,125.131 212.748,129.554 209.708 C 137.671 204.128,138.015 203.962,144.451 202.531 C 150.589 201.165,154.954 199.715,159.277 197.605 C 162.462 196.051,169.647 193.924,171.134 194.095 C 172.577 194.261,172.299 195.923,170.649 196.998 C 166.024 200.011,162.513 205.009,161.678 209.770 C 160.801 214.768,158.519 218.937,154.612 222.680 C 150.116 226.988,149.383 227.754,149.529 227.991 C 149.840 228.494,153.026 226.579,155.170 224.601 C 157.249 222.683,165.103 216.616,165.507 216.616 C 165.573 216.616,166.320 216.198,167.167 215.688 C 170.489 213.687,175.541 211.416,180.206 209.828 C 181.860 209.265,183.952 208.434,184.855 207.980 C 185.759 207.527,187.189 206.982,188.034 206.769 C 188.878 206.555,189.673 206.283,189.800 206.162 C 189.927 206.042,190.254 205.941,190.528 205.939 C 190.801 205.936,191.625 205.596,192.359 205.182 C 193.093 204.769,194.839 203.846,196.240 203.131 C 199.786 201.323,201.177 200.541,202.108 199.833 C 202.550 199.497,203.566 198.912,204.366 198.533 C 205.167 198.154,206.040 197.657,206.307 197.428 C 206.779 197.024,211.000 194.542,211.214 194.542 C 211.273 194.542,212.595 193.697,214.151 192.665 C 215.707 191.632,217.198 190.668,217.465 190.522 C 217.732 190.376,220.406 188.837,223.408 187.102 C 230.041 183.268,230.911 182.729,238.599 177.683 C 239.209 177.283,239.885 176.847,240.102 176.713 C 240.319 176.580,241.135 176.061,241.915 175.561 C 242.695 175.061,243.423 174.651,243.532 174.651 C 244.068 174.651,246.793 172.320,247.973 170.851 C 251.390 166.599,251.540 163.823,248.437 162.259 C 248.079 162.079,247.389 161.628,246.903 161.257 C 246.416 160.886,245.956 160.582,245.879 160.582 C 245.802 160.582,243.307 158.987,240.335 157.037 C 229.725 150.078,227.688 148.931,225.294 148.572 C 223.973 148.374,222.915 148.883,221.880 150.216 C 220.696 151.741,217.461 155.004,217.133 155.003 C 216.854 155.003,217.689 153.616,218.301 153.062 C 220.952 150.665,222.376 147.241,220.723 147.241 C 219.881 147.241,217.796 148.863,217.249 149.944 C 215.807 152.790,214.676 154.162,214.676 153.063 C 214.676 152.806,216.034 150.666,216.370 150.394 C 216.617 150.195,217.344 148.528,217.344 148.162 C 217.344 146.971,215.668 146.928,214.506 148.090 C 213.456 149.139,213.271 149.147,213.175 148.150 C 213.080 147.167,212.500 147.036,211.198 147.703 C 210.311 148.158,209.582 148.159,209.582 147.706 C 209.582 146.906,204.457 146.357,202.894 146.989 M169.473 149.028 C 170.920 149.611,172.596 150.312,173.196 150.586 C 175.999 151.867,177.233 152.387,178.791 152.945 C 179.716 153.276,181.264 153.830,182.232 154.176 C 184.492 154.984,187.750 156.722,187.750 157.121 C 187.750 157.599,187.198 157.491,185.606 156.701 C 184.799 156.301,184.061 155.973,183.967 155.973 C 183.872 155.973,183.129 155.659,182.316 155.275 C 181.502 154.891,180.304 154.397,179.653 154.176 C 179.002 153.955,177.910 153.524,177.227 153.219 C 173.796 151.683,172.129 150.974,169.800 150.060 C 167.006 148.963,165.926 148.343,166.448 148.135 C 166.624 148.064,166.784 147.998,166.804 147.988 C 166.825 147.977,168.025 148.445,169.473 149.028 M223.538 153.561 C 224.154 154.559,220.502 158.638,219.530 158.037 C 219.152 157.803,219.518 157.257,220.478 156.622 C 220.980 156.289,221.586 155.598,221.824 155.085 C 222.535 153.557,223.180 152.983,223.538 153.561 M228.568 153.608 C 228.682 153.935,227.420 155.708,226.811 156.076 C 226.607 156.199,226.070 156.668,225.618 157.117 C 224.518 158.209,223.651 158.679,223.651 158.184 C 223.651 157.932,228.060 153.306,228.300 153.305 C 228.389 153.305,228.510 153.441,228.568 153.608 M230.292 157.391 C 229.728 158.258,229.218 158.625,228.563 158.634 C 227.731 158.646,227.903 158.285,229.169 157.363 C 230.466 156.419,230.917 156.430,230.292 157.391 " stroke="none" fill="#ffffff" fill-rule="evenodd"></path></g></svg>